<svg xmlns="http://www.w3.org/2000/svg" xmlns:xlink="http://www.w3.org/1999/xlink" viewBox="0 0 897 1160">
<filter id="drop-shadow">
  <feGaussianBlur in="SourceAlpha" stdDeviation="2.2"/>
  <feOffset dx="20" dy="24" result="offsetblur"/>
  <feFlood flood-color="rgba(0,0,0,0.3)"/>
  <feComposite in2="offsetblur" operator="in"/>
  <feMerge>
    <feMergeNode/>
    <feMergeNode in="SourceGraphic"/>
  </feMerge>
</filter>
  <g id="visor" style="isolation: isolate">
    <path d="M223,825h26c2.88.83,5.59,4.18,8,5h91c8.78,2.38,21.38,4.19,30,8,1.57.7,3.39,3.45,5,4h11c3.76,1.34,6.24,6.66,10,8,7.62,2.72,13.85-.07,22,2,24.52,6.22,52.87,10.87,76,18l10,1c19.08,6.8,41,11.33,60,18,5.2,1.82,19.54-1.81,24,1,2,1.28,3.45,5.72,6,7,4.29,2.16,10.78-.82,16,1,3.76,1.31,7,6.78,12,7,4,.17,12.4-2.48,18-1,8.38,2.22,21.2,3.93,29,6h29c2.59.73,5.9,4.62,8,5,2.71.5,4.36-2.51,6-3l11,1c.76,2.63,1.2,2.39,2,5-19.77.16-12.7,11.12-21,20-5.76,6.17-16.48,10.43-22,18-5,6.84-9.25,14.06-16,19-13.92,10.18-26.37,22-40,32-4.92,3.59-10.44,6-15,10-10.75,9.52-22.34,20.61-35,28-23.38,13.65-50,19.41-80,27-8.16,2.07-14.12-1.85-21-2-31.21-.66-54.75-4.94-77-13-9.07-3.28-16.94-2.69-26-6-17-6.23-36.88-14.35-53-22-8.18-3.88-17.08-2.46-25-6a714.29,714.29,0,0,0-112-39H172c-13-3.18-39-5.86-52-2-2.37.71-5.35,3.28-8,4-11.93,3.25-25.53.93-36,5-3.79,1.47-18,7.35-21,10-7.66,6.84-3,8.94-19,9-1-.8-.27-.35-2-1-1.71-2.73-2.54-2.5-3-7-.83-1.66-.24-2.59,0-6,10.43-7.06,18.68-20.47,28-29,2.88-2.63,7.06-3.39,10-6,1-.86,1.06-3.07,2-4,4.36-4.32,9.66-7.66,14-12,2.29-2.29,3.62-5.82,6-8,2.88-2.63,7.06-3.39,10-6,2.39-2.13,3.72-5.72,6-8,9.67-9.67,20.33-18.33,30-28,4.95-5,8.84-11.28,14-16,2.88-2.63,7.06-3.39,10-6,3.09-2.76,5.06-7.06,8-10s7.24-4.91,10-8,3.37-7.12,6-10c1.5-1.64,4.53-2.34,6-4,3.75-4.24,3-9.76,9-12C205.64,825.47,217.05,828.76,223,825Z" fill-rule="evenodd"/>
  </g>
  <g id="crown" style="isolation: isolate">
    <path d="M598,448c31.32-.74,59.11,12.42,82,21,79.8,29.89,124.75,63.19,159,139,9.38,20.77,11.09,48.91,17,72,2.4,9.4-.38,16.33,2,26,2.9,11.76,2,30.12,2,45v87a64,64,0,0,0-2,16c0,18.06-2,57.42-16,59-7.23,4.62-18.36.74-28,3-3.23.76-8.45,3.35-14,2-3.61-.88-9.92-3.42-16-2-10.06,2.35-30.71,3-42,0-7.61-2-26-10.78-38-8-41.32,9.52-86.76-8.38-122-18-42.6-11.63-83.11-20.56-126-32-29.81-8-62.51-8.79-92-16-11-2.68-19.24.66-30-2-2.88-.71-10.11-.73-14-2-3.27-1.07-6.56-5-10-6H296c-6.8-1.67-21.19-2.34-28-4-12.54-3-29.73.5-40-2-6.17-1.5-15.41,1.9-20-1-4.51-1.44-5.13-4.16-8-7-.38-19.06,3.84-37.37,8-54V744c3.33-13.24.33-31.51,4-46,2.85-11.25,7.49-20.31,11-30q2-10,4-20c7.52-20.88,13.41-43.66,24-62,7.47-12.94,18.92-23.79,27-36,3.68-5.57,4.71-12.19,9-17,7.88-8.84,24.61-14,34-22a184.33,184.33,0,0,1,45-28c7.47-3.31,14.37-3,22-6,9.75-3.79,11.78-13.73,25-14,8.22,5.24,35.38-3.19,41-5l24-1c4.22-1.41,8.7-5.74,13-7h43c-.15-4.28-.74-11.39,1-14,5.72-18.67,60-16.88,62,4C598.14,441.69,598.07,444.9,598,448Z" fill-rule="evenodd"/>
  </g>
  <g id="shadow">
    <image id="Layer_4_Image" data-name="Layer 4 Image" width="842" height="666" transform="translate(24 416)" xlink:href="imagefiles/double-red-airtech-mesh-3d-logo-cap-allwhite1.png"/>
  </g>
</svg>
